<svg width="20" height="18" viewBox="0 0 20 18" fill="none" xmlns="http://www.w3.org/2000/svg">
<path d="M17.3197 3.11113C17.1862 1.84022 16.1094 0.846289 14.8036 0.846289H3.43077C2.03521 0.846289 0.9 1.9815 0.9 3.37706V14.6237C0.9 16.0192 2.03521 17.1544 3.43077 17.1544H16.5692C17.9648 17.1544 19.1 16.0192 19.1 14.6237V5.52752C19.1 4.39301 18.3496 3.43165 17.3197 3.11113ZM3.43077 2.18183H14.8036C15.3295 2.18183 15.7772 2.52355 15.9365 2.99679H3.43077C2.99976 2.99679 2.59375 3.10555 2.23823 3.29646C2.27983 2.67493 2.79889 2.18183 3.43077 2.18183ZM16.5692 15.8189H3.43077C2.77181 15.8189 2.23554 15.2826 2.23554 14.6237V5.52752C2.23554 4.86857 2.77181 4.3323 3.43077 4.3323H16.5692C17.2282 4.3323 17.7645 4.86857 17.7645 5.52752V7.40897H14.244C12.7541 7.40897 11.5421 8.62098 11.5421 10.1109C11.5421 11.6008 12.7541 12.8128 14.244 12.8128H17.7644V14.6237C17.7644 15.2826 17.2282 15.8189 16.5692 15.8189ZM17.7644 11.4773H14.244C13.4907 11.4773 12.8777 10.8642 12.8777 10.1109C12.8777 9.35754 13.4907 8.74451 14.244 8.74451H17.7644V11.4773Z" fill="white" stroke="white" stroke-width="0.2"/>
<path d="M14.4548 10.7457C14.7812 10.7457 15.0459 10.4811 15.0459 10.1546C15.0459 9.82813 14.7812 9.56348 14.4548 9.56348C14.1283 9.56348 13.8636 9.82813 13.8636 10.1546C13.8636 10.4811 14.1283 10.7457 14.4548 10.7457Z" fill="white"/>
</svg>
