<svg width="20" height="19" viewBox="0 0 20 19" fill="none" xmlns="http://www.w3.org/2000/svg">
<path d="M17.1777 18.875H7.21679C6.00508 18.875 5.01953 17.8894 5.01953 16.6777V6.71679C5.01953 5.50508 6.00508 4.51953 7.21679 4.51953H17.1777C18.3894 4.51953 19.375 5.50508 19.375 6.71679V16.6777C19.375 17.8894 18.3894 18.875 17.1777 18.875ZM7.21679 5.98437C6.81294 5.98437 6.48437 6.31294 6.48437 6.71679V16.6777C6.48437 17.0816 6.81294 17.4101 7.21679 17.4101H17.1777C17.5816 17.4101 17.9101 17.0816 17.9101 16.6777V6.71679C17.9101 6.31294 17.5816 5.98437 17.1777 5.98437H7.21679ZM3.55469 13.0156H2.82226C2.41841 13.0156 2.08984 12.6871 2.08984 12.2832V2.32226C2.08984 1.91841 2.41841 1.58984 2.82226 1.58984H12.7832C13.1871 1.58984 13.5156 1.91841 13.5156 2.32226V3.01806H14.9805V2.32226C14.9805 1.11055 13.9949 0.125 12.7832 0.125H2.82226C1.61055 0.125 0.625 1.11055 0.625 2.32226V12.2832C0.625 13.4949 1.61055 14.4805 2.82226 14.4805H3.55469V13.0156Z" fill="white"/>
</svg>
