<svg width="18" height="14" viewBox="0 0 18 14" fill="none" xmlns="http://www.w3.org/2000/svg">
<path d="M14.9329 1.58644C13.8207 1.07771 12.6396 0.706944 11.4067 0.5C11.2516 0.767304 11.0791 1.12945 10.9584 1.414C9.64712 1.22429 8.34527 1.22429 7.05209 1.414C6.93138 1.12945 6.75033 0.767304 6.60376 0.5C5.3623 0.706944 4.18118 1.07771 3.07678 1.58644C0.843851 4.88028 0.240358 8.09647 0.542109 11.2696C2.02497 12.3475 3.45614 13.0027 4.86228 13.4339C5.20714 12.9683 5.51751 12.4681 5.78477 11.9422C5.27611 11.7525 4.79331 11.5197 4.32776 11.2438C4.44846 11.1576 4.56916 11.0627 4.68124 10.9678C7.49179 12.2526 10.536 12.2526 13.312 10.9678C13.4327 11.0627 13.5448 11.1576 13.6656 11.2438C13.2 11.5197 12.7172 11.7525 12.2086 11.9422C12.4758 12.4681 12.7862 12.9683 13.131 13.4339C14.5363 13.0027 15.9761 12.3475 17.4512 11.2696C17.8219 7.59646 16.8641 4.40607 14.9329 1.58644ZM6.17272 9.31229C5.32782 9.31229 4.63811 8.54489 4.63811 7.60507C4.63811 6.66517 5.31058 5.89776 6.17272 5.89776C7.02622 5.89776 7.72453 6.66517 7.70731 7.60507C7.70731 8.54489 7.02622 9.31229 6.17272 9.31229ZM11.8379 9.31229C10.9929 9.31229 10.3023 8.54489 10.3023 7.60507C10.3023 6.66517 10.9757 5.89776 11.8379 5.89776C12.6914 5.89776 13.3897 6.66517 13.3724 7.60507C13.3724 8.54489 12.7 9.31229 11.8379 9.31229Z" fill="white"/>
</svg>
