<svg width="16" height="17" viewBox="0 0 16 17" fill="none" xmlns="http://www.w3.org/2000/svg">
<path d="M8 1.41504C9.85652 1.41504 11.637 2.15254 12.9497 3.46529C14.2625 4.77805 15 6.55852 15 8.41504C15 10.2716 14.2625 12.052 12.9497 13.3648C11.637 14.6775 9.85652 15.415 8 15.415C6.14348 15.415 4.36301 14.6775 3.05025 13.3648C1.7375 12.052 1 10.2716 1 8.41504C1 6.55852 1.7375 4.77805 3.05025 3.46529C4.36301 2.15254 6.14348 1.41504 8 1.41504ZM8 14.415C9.5913 14.415 11.1174 13.7829 12.2426 12.6577C13.3679 11.5325 14 10.0063 14 8.41504C14 6.82374 13.3679 5.29762 12.2426 4.1724C11.1174 3.04718 9.5913 2.41504 8 2.41504C6.4087 2.41504 4.88258 3.04718 3.75736 4.1724C2.63214 5.29762 2 6.82374 2 8.41504C2 10.0063 2.63214 11.5325 3.75736 12.6577C4.88258 13.7829 6.4087 14.415 8 14.415ZM8.75 11.665C8.75 11.864 8.67098 12.0547 8.53033 12.1954C8.38968 12.336 8.19891 12.415 8 12.415C7.80109 12.415 7.61032 12.336 7.46967 12.1954C7.32902 12.0547 7.25 11.864 7.25 11.665C7.25 11.4661 7.32902 11.2754 7.46967 11.1347C7.61032 10.9941 7.80109 10.915 8 10.915C8.19891 10.915 8.38968 10.9941 8.53033 11.1347C8.67098 11.2754 8.75 11.4661 8.75 11.665ZM8 4.41504C8.13261 4.41504 8.25979 4.46772 8.35355 4.56149C8.44732 4.65525 8.5 4.78243 8.5 4.91504V9.41504C8.5 9.54765 8.44732 9.67482 8.35355 9.76859C8.25979 9.86236 8.13261 9.91504 8 9.91504C7.86739 9.91504 7.74021 9.86236 7.64645 9.76859C7.55268 9.67482 7.5 9.54765 7.5 9.41504V4.91504C7.5 4.78243 7.55268 4.65525 7.64645 4.56149C7.74021 4.46772 7.86739 4.41504 8 4.41504Z" fill="white" fill-opacity="0.64"/>
</svg>
