<svg width="26" height="38" viewBox="0 0 26 38" fill="none" xmlns="http://www.w3.org/2000/svg">
<path d="M3.39606 17.555L0.48532 14.6442C0.174266 14.3332 -0.000485201 13.9113 -0.00048524 13.4714C-0.000485278 13.0315 0.174264 12.6096 0.48532 12.2986L11.7981 0.985806C12.1091 0.67475 12.531 0.500001 12.9709 0.500001C13.4108 0.500001 13.8327 0.67475 14.1438 0.985805L25.4565 12.2986C25.6105 12.4526 25.7327 12.6354 25.8161 12.8367C25.8994 13.0379 25.9423 13.2536 25.9423 13.4714C25.9423 13.6892 25.8994 13.9049 25.8161 14.1061C25.7327 14.3074 25.6105 14.4902 25.4565 14.6442L14.1438 25.957C13.9897 26.1111 13.8068 26.2332 13.6056 26.3166C13.4043 26.3999 13.1886 26.4428 12.9707 26.4428C12.7529 26.4428 12.5371 26.3998 12.3359 26.3164C12.1346 26.233 11.9518 26.1108 11.7978 25.9567L8.89841 23.0573C8.8783 23.0372 8.867 23.0099 8.867 22.9815C8.867 22.9531 8.8783 22.9258 8.89841 22.9057L11.348 20.4561C11.3681 20.436 11.3954 20.4247 11.4238 20.4247C11.4523 20.4247 11.4795 20.436 11.4997 20.4561L12.9312 21.8876C12.9417 21.8981 12.956 21.904 12.9709 21.904C12.9858 21.904 13.0001 21.8981 13.0107 21.8876L21.3871 13.5111C21.3976 13.5006 21.4035 13.4863 21.4035 13.4714C21.4035 13.4565 21.3976 13.4422 21.3871 13.4317L13.0107 5.0552C13.0001 5.04469 12.9858 5.03878 12.9709 5.03878C12.956 5.03878 12.9417 5.04469 12.9312 5.0552L4.55471 13.4317C4.5442 13.4422 4.5383 13.4565 4.5383 13.4714C4.5383 13.4863 4.5442 13.5006 4.55471 13.5111L5.99731 14.9537C6.01742 14.9739 6.02872 15.0011 6.02872 15.0296C6.02872 15.058 6.01742 15.0853 5.99731 15.1054L3.54774 17.555C3.52762 17.5751 3.50034 17.5864 3.4719 17.5864C3.44345 17.5864 3.41617 17.5751 3.39606 17.555Z" fill="white"/>
<path d="M17.0848 14.9537L14.1741 12.043C13.863 11.7319 13.4412 11.5572 13.0013 11.5572C12.5614 11.5572 12.1395 11.7319 11.8284 12.043L0.515656 23.3558C0.204599 23.6668 0.0298502 24.0887 0.0298502 24.5286C0.0298502 24.9685 0.204602 25.3904 0.515656 25.7014L11.8284 37.0142C12.1395 37.3252 12.5614 37.5 13.0013 37.5C13.4412 37.5 13.863 37.3252 14.1741 37.0142L25.4869 25.7014C25.6409 25.5474 25.7631 25.3645 25.8464 25.1632C25.9298 24.962 25.9727 24.7462 25.9727 24.5284C25.9726 24.3105 25.9297 24.0948 25.8463 23.8936C25.7629 23.6923 25.6406 23.5095 25.4866 23.3555L22.5872 20.4561C22.5671 20.436 22.5398 20.4247 22.5113 20.4247C22.4829 20.4247 22.4556 20.436 22.4355 20.4561L19.9859 22.9057C19.9658 22.9258 19.9545 22.9531 19.9545 22.9815C19.9545 23.0099 19.9658 23.0372 19.9859 23.0573L21.4175 24.4889C21.428 24.4994 21.4339 24.5137 21.4339 24.5286C21.4339 24.5435 21.428 24.5578 21.4175 24.5683L13.041 32.9448C13.0304 32.9553 13.0161 32.9612 13.0013 32.9612C12.9864 32.9612 12.9721 32.9553 12.9615 32.9448L4.58505 24.5683C4.57454 24.5578 4.56863 24.5435 4.56863 24.5286C4.56863 24.5137 4.57454 24.4994 4.58505 24.4889L12.9615 16.1124C12.9721 16.1019 12.9864 16.096 13.0013 16.096C13.0162 16.096 13.0304 16.1019 13.041 16.1124L14.4836 17.555C14.5037 17.5751 14.531 17.5864 14.5594 17.5864C14.5879 17.5864 14.6151 17.5751 14.6353 17.555L17.0848 15.1054C17.1049 15.0853 17.1162 15.058 17.1162 15.0296C17.1162 15.0011 17.1049 14.9739 17.0848 14.9537Z" fill="white"/>
</svg>
