<svg width="458" height="151" viewBox="0 0 458 151" fill="none" xmlns="http://www.w3.org/2000/svg">
<g clip-path="url(#clip0_67_19597)">
<path d="M170.096 78.8809V71.7882C170.096 69.231 173.214 67.1555 177.056 67.1555H288.6V74.2482C288.6 76.8054 285.482 78.8809 281.641 78.8809H170.096Z" fill="url(#paint0_linear_67_19597)"/>
<path d="M170.096 45.3027V38.2101C170.096 35.6529 173.214 33.5774 177.056 33.5774L288.6 33.5774V40.6701C288.6 43.2273 285.482 45.3027 281.641 45.3027L170.096 45.3027Z" fill="url(#paint1_linear_67_19597)"/>
<path d="M170.096 11.7256V4.63295C170.096 2.07571 173.214 0.000267982 177.056 0.000267982L288.6 0.000267982V7.0929C288.6 9.65014 285.482 11.7256 281.641 11.7256L170.096 11.7256Z" fill="url(#paint2_linear_67_19597)"/>
<path d="M288.601 16.7891V23.8817C288.601 26.4389 285.483 28.5144 281.641 28.5144L170.096 28.5144V21.4217C170.096 18.8645 173.214 16.7891 177.056 16.7891L288.601 16.7891Z" fill="url(#paint3_linear_67_19597)"/>
<path d="M288.601 50.3667V57.4593C288.601 60.0166 285.483 62.092 281.641 62.092L170.096 62.092V54.9994C170.096 52.4421 173.214 50.3667 177.056 50.3667L288.601 50.3667Z" fill="url(#paint4_linear_67_19597)"/>
</g>
<g clip-path="url(#clip1_67_19597)">
<path d="M239.561 128.803V149.697H244.359V126.295H242.068C240.682 126.295 239.561 127.416 239.561 128.803Z" fill="white"/>
<path d="M239.561 120.399V123.398H242.289C243.431 123.398 244.359 122.473 244.359 121.328V118.33H241.63C240.489 118.33 239.561 119.254 239.561 120.399Z" fill="white"/>
<path d="M76.791 128.803V149.697H81.5897V126.295H79.2989C77.9123 126.295 76.791 127.416 76.791 128.803Z" fill="white"/>
<path d="M76.791 120.399V123.398H79.5199C80.6613 123.398 81.5897 122.473 81.5897 121.328V118.33H78.8608C77.7154 118.33 76.791 119.254 76.791 120.399Z" fill="url(#paint5_linear_67_19597)"/>
<path d="M154.225 134.851C154.225 133.911 154.116 133.003 153.903 132.147C153.144 129.084 151.259 127.107 148.309 126.263C146.766 125.821 145.094 125.752 143.293 126.058C142.019 126.275 140.882 126.717 139.893 127.376V126.343H137.458C136.135 126.343 135.066 127.416 135.066 128.734V147.178C135.066 148.568 136.196 149.698 137.586 149.698H139.893V145.112C139.893 142.359 139.893 139.61 139.893 136.857C139.893 135.611 140.03 134.63 140.331 133.766C140.785 132.456 141.545 131.588 142.65 131.114C143.908 130.579 145.251 130.483 146.641 130.832C147.778 131.118 148.55 131.777 149.004 132.854C149.265 133.477 149.39 134.188 149.39 135.088V147.178C149.39 148.568 150.519 149.698 151.91 149.698H154.229V144.915C154.229 141.559 154.229 138.207 154.229 134.851H154.225Z" fill="white"/>
<path d="M269.57 134.851C269.57 133.911 269.461 133.003 269.248 132.147C268.489 129.084 266.604 127.107 263.654 126.263C262.11 125.821 260.439 125.752 258.638 126.058C257.364 126.275 256.227 126.717 255.238 127.376V126.343H252.802C251.48 126.343 250.411 127.416 250.411 128.734V147.178C250.411 148.568 251.54 149.698 252.931 149.698H255.238V145.112C255.238 142.359 255.238 139.61 255.238 136.857C255.238 135.611 255.375 134.63 255.676 133.766C256.13 132.456 256.89 131.588 257.995 131.114C259.253 130.579 260.595 130.483 261.986 130.832C263.123 131.118 263.895 131.777 264.349 132.854C264.61 133.477 264.735 134.188 264.735 135.088V147.178C264.735 148.568 265.864 149.698 267.255 149.698H269.574V144.915C269.574 141.559 269.574 138.207 269.574 134.851H269.57Z" fill="white"/>
<path d="M116.663 125.423C109.863 125.423 104.53 130.748 104.521 137.544C104.517 140.82 105.767 143.882 108.046 146.161C110.325 148.44 113.383 149.698 116.663 149.698H116.667C123.471 149.698 128.796 144.36 128.792 137.556C128.792 130.756 123.463 125.427 116.663 125.427V125.423ZM116.655 130.185H116.671C120.758 130.185 123.977 133.417 123.998 137.536C124.006 139.534 123.254 141.394 121.884 142.777C120.513 144.159 118.66 144.923 116.671 144.931H116.647C114.677 144.931 112.845 144.171 111.482 142.793C110.116 141.41 109.364 139.55 109.364 137.552C109.364 133.429 112.568 130.193 116.655 130.181V130.185Z" fill="white"/>
<path d="M95.1259 126.275C94.4507 126.432 93.8238 126.673 93.241 126.99C92.9637 127.143 92.6985 127.316 92.4453 127.505V126.339H90.0942C88.7398 126.339 87.6426 127.437 87.6426 128.791V149.694H90.0098C91.3642 149.694 92.4613 148.596 92.4613 147.242V145.257C92.4613 142.283 92.4613 139.204 92.4694 136.178C92.4694 135.611 92.5136 135.061 92.602 134.538C92.9155 132.625 94.081 131.403 95.982 131.005C96.2754 130.945 96.5969 130.913 96.9385 130.877C97.1153 130.861 97.2922 130.841 97.469 130.821L98.4778 130.696V128.578C98.4778 127.163 97.26 126.05 95.8534 126.179C95.5439 126.207 95.2867 126.239 95.13 126.275H95.1259Z" fill="white"/>
<path d="M228.934 139.799V144.951L228.202 144.987H224.489C223.496 144.987 222.507 144.987 221.515 144.987C220.992 144.987 220.546 144.891 220.148 144.698C219.007 144.139 218.275 142.953 218.279 141.679C218.292 140.417 219.027 139.244 220.148 138.697C220.542 138.504 220.988 138.408 221.515 138.408C222.507 138.408 223.5 138.408 224.489 138.408H226.904H231.43C232.663 138.408 233.66 137.407 233.66 136.177V131.945C233.66 131.813 233.652 131.684 233.628 131.556C233.045 128.332 230.236 125.989 226.964 125.989H221.973C220.695 125.989 219.654 127.026 219.654 128.308V130.716H226.964C227.813 130.716 228.584 131.25 228.882 132.042C228.914 132.13 228.93 132.223 228.934 132.311V133.706H228.07C227.157 133.706 226.241 133.706 225.329 133.706C223.773 133.706 222.503 133.706 221.33 133.718C219.32 133.73 217.544 134.441 216.045 135.828C214.305 137.439 213.449 139.324 213.437 141.583V141.675C213.429 143.99 214.309 145.98 216.041 147.587C217.54 148.974 219.32 149.685 221.326 149.697C222.499 149.705 223.773 149.709 225.337 149.709C226.177 149.709 227.017 149.709 227.861 149.709H229.199H233.664V139.815H228.938L228.934 139.799Z" fill="white"/>
<path d="M181.056 142.676C180.959 142.472 180.863 142.271 180.766 142.066C180.718 141.961 180.666 141.885 180.63 141.832L179.73 140.378L178.644 141.8C178.608 141.849 178.576 141.889 178.544 141.929C176.92 143.987 174.983 144.983 172.628 144.983C172.13 144.983 171.603 144.935 171.069 144.843C167.247 144.184 164.715 140.775 165.185 136.909C165.39 135.213 166.113 133.774 167.335 132.629C168.786 131.271 170.458 130.611 172.447 130.611C172.664 130.611 172.885 130.62 173.106 130.636C174.605 130.744 175.924 131.259 177.137 132.211C177.7 132.653 178.214 133.2 178.705 133.879L179.842 135.45L180.883 133.268C181.305 132.38 181.325 131.52 181.201 130.812C181.028 129.824 180.477 128.923 179.677 128.321C179.677 128.321 179.669 128.317 179.669 128.313C177.527 126.705 175.136 125.889 172.572 125.889C171.692 125.889 170.779 125.986 169.863 126.179C166.652 126.85 164.112 128.566 162.319 131.283C160.744 133.67 160.129 136.359 160.483 139.272C160.848 142.271 162.171 144.766 164.413 146.695C166.72 148.681 169.373 149.686 172.298 149.686C173.106 149.686 173.942 149.609 174.786 149.452C177.419 148.97 179.669 147.668 181.482 145.578C181.884 145.116 181.96 144.541 181.695 143.999C181.478 143.561 181.265 143.107 181.056 142.668V142.676Z" fill="white"/>
<path d="M192.935 123.859V120.99C192.935 119.515 191.741 118.321 190.266 118.321H188.12V129.494C189.065 127.758 190.407 126.584 191.785 125.813C192.493 125.415 192.935 124.667 192.935 123.855V123.859Z" fill="white"/>
<path d="M207.287 147.134V146.748V143.524C207.287 140.663 207.287 137.797 207.287 134.936C207.287 133.807 207.158 132.798 206.897 131.857C206.073 128.903 204.192 127.002 201.315 126.207C200.422 125.962 199.474 125.837 198.497 125.837C197.931 125.837 197.336 125.881 196.725 125.966C195.78 126.114 194.643 126.428 193.506 126.998C193.309 127.107 193.116 127.223 192.931 127.348V127.312C190.435 128.775 188.116 131.572 188.116 136.696V147.507C188.116 148.717 189.097 149.694 190.303 149.694H192.939V145.088C192.939 142.186 192.939 139.284 192.943 136.383C192.943 135.575 193.056 134.787 193.277 134.04C193.731 132.496 194.543 131.54 195.829 131.021C196.922 130.583 198.119 130.483 199.389 130.724C200.76 130.985 201.656 131.729 202.13 133.003C202.347 133.582 202.448 134.245 202.448 135.093V147.507C202.448 148.717 203.429 149.694 204.634 149.694H207.214V149.686H207.279V148.335V147.13L207.287 147.134Z" fill="white"/>
</g>
<g clip-path="url(#clip2_67_19597)">
<path d="M355.209 135.269C355.209 134.308 355.096 133.376 354.879 132.496C354.099 129.361 352.17 127.332 349.148 126.467C347.569 126.017 345.852 125.945 344.012 126.258C342.71 126.48 341.544 126.934 340.527 127.609V126.552H338.036C336.681 126.552 335.584 127.649 335.584 129.003V147.897C335.584 149.323 336.741 150.477 338.164 150.477H340.527V145.779C340.527 142.961 340.527 140.14 340.527 137.323C340.527 136.049 340.668 135.04 340.977 134.156C341.444 132.813 342.219 131.925 343.353 131.439C344.643 130.888 346.017 130.792 347.44 131.15C348.606 131.443 349.397 132.118 349.863 133.219C350.133 133.858 350.257 134.586 350.257 135.506V147.893C350.257 149.319 351.415 150.473 352.838 150.473H355.213V145.574C355.213 142.137 355.213 138.701 355.213 135.265L355.209 135.269Z" fill="url(#paint6_linear_67_19597)"/>
<path d="M282.216 124.969V120.798C282.216 119.564 281.215 118.563 279.981 118.563H277.309V119.925V124.27C277.309 126.271 277.309 128.832 277.309 130.873C278.305 129.274 279.648 128.1 280.954 127.256C281.733 126.754 282.216 125.898 282.216 124.969Z" fill="url(#paint7_linear_67_19597)"/>
<path d="M301.499 136.126C300.9 132.678 299.115 129.965 296.202 128.064C294.188 126.75 291.974 126.086 289.615 126.086C288.762 126.086 287.878 126.175 286.986 126.348C286.99 126.352 277.393 128.446 277.316 137.573C277.316 137.717 277.316 137.866 277.316 138.011C277.316 138.915 277.381 139.711 277.513 140.442C278.12 143.87 279.885 146.575 282.762 148.472C284.784 149.806 287.01 150.482 289.377 150.482C290.125 150.482 290.901 150.413 291.672 150.277C295.096 149.678 297.797 147.91 299.698 145.016C301.454 142.347 302.061 139.357 301.499 136.126ZM289.522 145.651H289.482C285.399 145.631 282.208 142.391 282.216 138.276C282.228 134.149 285.423 130.913 289.498 130.913H289.518C291.503 130.917 293.348 131.677 294.715 133.047C296.089 134.43 296.841 136.299 296.837 138.308C296.821 142.424 293.613 145.647 289.526 145.647L289.522 145.651Z" fill="url(#paint8_linear_67_19597)"/>
<path d="M324.13 140.337V145.614L323.378 145.65H319.576C318.56 145.65 317.543 145.65 316.53 145.65C315.996 145.65 315.537 145.554 315.131 145.353C313.966 144.782 313.21 143.568 313.214 142.258C313.23 140.964 313.982 139.763 315.131 139.2C315.537 139.003 315.996 138.906 316.53 138.902C317.547 138.902 318.564 138.902 319.576 138.902H322.052H326.686C327.948 138.902 328.973 137.878 328.973 136.616V132.279C328.973 132.147 328.965 132.01 328.941 131.877C328.342 128.574 325.464 126.174 322.112 126.174H316.996C315.686 126.174 314.621 127.235 314.621 128.55V131.017H322.108C322.976 131.017 323.768 131.564 324.074 132.376C324.106 132.464 324.126 132.56 324.126 132.653V134.084H323.242C322.305 134.084 321.369 134.084 320.432 134.084C318.841 134.084 317.539 134.084 316.337 134.096C314.279 134.108 312.459 134.835 310.924 136.258C309.139 137.91 308.267 139.839 308.255 142.154V142.246C308.247 144.621 309.147 146.659 310.924 148.303C312.459 149.726 314.283 150.453 316.337 150.465C317.539 150.473 318.845 150.477 320.449 150.477C321.309 150.477 322.173 150.477 323.033 150.477H324.403H328.977V140.341H324.134L324.13 140.337Z" fill="url(#paint9_linear_67_19597)"/>
<path d="M366.614 131.6V118.321H361.707V134.819C361.707 135.812 362.961 136.246 363.572 135.466L366.614 131.6Z" fill="url(#paint10_linear_67_19597)"/>
<path d="M369.93 138.091C370.348 137.573 373.414 133.755 375.279 131.432C376.087 130.427 375.978 128.968 375.03 128.092C374.431 127.537 373.84 126.999 373.394 126.609C373.286 126.621 373.233 126.625 373.125 126.637L372.936 126.89C372.651 127.256 367.993 132.983 367.707 133.353C367.346 133.819 366.976 134.293 366.618 134.755V134.723L361.711 140.957V150.458H364.199C365.545 150.458 366.634 149.368 366.634 148.022V141.226C369.243 144.124 371.847 147.021 374.451 149.919C374.781 150.285 375.211 150.478 375.697 150.478H375.713C376.131 150.478 376.549 150.474 376.971 150.474H378.092H378.281C378.346 150.474 378.414 150.474 378.498 150.466L381.086 150.337L369.938 138.087L369.93 138.091Z" fill="url(#paint11_linear_67_19597)"/>
</g>
<defs>
<linearGradient id="paint0_linear_67_19597" x1="175.65" y1="73.0205" x2="280.416" y2="73.0205" gradientUnits="userSpaceOnUse">
<stop stop-color="#EEAB29" stop-opacity="0"/>
<stop offset="1" stop-color="#F46020"/>
</linearGradient>
<linearGradient id="paint1_linear_67_19597" x1="175.65" y1="39.4424" x2="280.416" y2="39.4424" gradientUnits="userSpaceOnUse">
<stop stop-color="#EEAB29" stop-opacity="0"/>
<stop offset="1" stop-color="#F46020"/>
</linearGradient>
<linearGradient id="paint2_linear_67_19597" x1="175.65" y1="5.86524" x2="280.416" y2="5.86524" gradientUnits="userSpaceOnUse">
<stop stop-color="#EEAB29" stop-opacity="0"/>
<stop offset="1" stop-color="#F46020"/>
</linearGradient>
<linearGradient id="paint3_linear_67_19597" x1="283.047" y1="22.6494" x2="178.281" y2="22.6494" gradientUnits="userSpaceOnUse">
<stop stop-color="#EEAB29" stop-opacity="0"/>
<stop offset="1" stop-color="#F46020"/>
</linearGradient>
<linearGradient id="paint4_linear_67_19597" x1="283.047" y1="56.227" x2="178.281" y2="56.227" gradientUnits="userSpaceOnUse">
<stop stop-color="#EEAB29" stop-opacity="0"/>
<stop offset="1" stop-color="#F46020"/>
</linearGradient>
<linearGradient id="paint5_linear_67_19597" x1="86.3361" y1="113.716" x2="73.8572" y2="126.191" gradientUnits="userSpaceOnUse">
<stop stop-color="#EEAB29" stop-opacity="0"/>
<stop offset="1" stop-color="#F46020"/>
</linearGradient>
<linearGradient id="paint6_linear_67_19597" x1="410.116" y1="92.0127" x2="294.936" y2="175.845" gradientUnits="userSpaceOnUse">
<stop stop-color="#EEAB29" stop-opacity="0"/>
<stop offset="1" stop-color="#F46020"/>
</linearGradient>
<linearGradient id="paint7_linear_67_19597" x1="379.278" y1="50.5054" x2="264.094" y2="134.333" gradientUnits="userSpaceOnUse">
<stop stop-color="#EEAB29" stop-opacity="0"/>
<stop offset="1" stop-color="#F46020"/>
</linearGradient>
<linearGradient id="paint8_linear_67_19597" x1="389.973" y1="65.1988" x2="274.788" y2="149.031" gradientUnits="userSpaceOnUse">
<stop stop-color="#EEAB29" stop-opacity="0"/>
<stop offset="1" stop-color="#F46020"/>
</linearGradient>
<linearGradient id="paint9_linear_67_19597" x1="402.79" y1="79.968" x2="287.605" y2="163.796" gradientUnits="userSpaceOnUse">
<stop stop-color="#EEAB29" stop-opacity="0"/>
<stop offset="1" stop-color="#F46020"/>
</linearGradient>
<linearGradient id="paint10_linear_67_19597" x1="409.79" y1="92.6038" x2="294.606" y2="176.436" gradientUnits="userSpaceOnUse">
<stop stop-color="#EEAB29" stop-opacity="0"/>
<stop offset="1" stop-color="#F46020"/>
</linearGradient>
<linearGradient id="paint11_linear_67_19597" x1="420.3" y1="107.048" x2="305.12" y2="190.881" gradientUnits="userSpaceOnUse">
<stop stop-color="#EEAB29" stop-opacity="0"/>
<stop offset="1" stop-color="#F46020"/>
</linearGradient>
<clipPath id="clip0_67_19597">
<rect width="118.505" height="78.8807" fill="white" transform="translate(170.096)"/>
</clipPath>
<clipPath id="clip1_67_19597">
<rect width="192.518" height="31.3722" fill="white" transform="translate(76.791 118.321)"/>
</clipPath>
<clipPath id="clip2_67_19597">
<rect width="103.899" height="32.1599" fill="white" transform="translate(277.309 118.321)"/>
</clipPath>
</defs>
</svg>
